<?xml version="1.0"?>
<svg xmlns="http://www.w3.org/2000/svg" xmlns:xlink="http://www.w3.org/1999/xlink" xmlns:svgjs="http://svgjs.com/svgjs" version="1.1" width="512" height="512" x="0" y="0" viewBox="0 0 256 256" style="enable-background:new 0 0 512 512" xml:space="preserve"><g><rect xmlns="http://www.w3.org/2000/svg" fill="#63bce7" height="25.182" rx="4.919" width="73.851" x="91.075" y="54.419" data-original="#63bce7" style=""/><rect xmlns="http://www.w3.org/2000/svg" fill="#63bce7" height="25.182" rx="4.919" width="73.851" x="91.075" y="79.601" data-original="#63bce7" style=""/><rect xmlns="http://www.w3.org/2000/svg" fill="#63bce7" height="25.182" rx="4.919" width="73.851" x="91.075" y="29.236" data-original="#63bce7" style=""/><path xmlns="http://www.w3.org/2000/svg" d="m95.993 29.236h9.5a4.919 4.919 0 0 0 -4.919 4.919v15.345a4.919 4.919 0 0 0 4.919 4.919h-9.5a4.919 4.919 0 0 1 -4.918-4.919v-15.345a4.919 4.919 0 0 1 4.918-4.919z" fill="#6377e7" data-original="#6377e7" style=""/><path xmlns="http://www.w3.org/2000/svg" d="m95.993 54.418h9.5a4.919 4.919 0 0 0 -4.919 4.919v15.345a4.919 4.919 0 0 0 4.919 4.919h-9.5a4.919 4.919 0 0 1 -4.919-4.919v-15.345a4.919 4.919 0 0 1 4.919-4.919z" fill="#6377e7" data-original="#6377e7" style=""/><path xmlns="http://www.w3.org/2000/svg" d="m95.993 79.6h9.5a4.919 4.919 0 0 0 -4.919 4.919v15.345a4.919 4.919 0 0 0 4.919 4.919h-9.5a4.919 4.919 0 0 1 -4.919-4.919v-15.345a4.919 4.919 0 0 1 4.919-4.919z" fill="#6377e7" data-original="#6377e7" style=""/><rect xmlns="http://www.w3.org/2000/svg" fill="#9e9e9e" height="25.182" rx="4.919" width="73.851" x="17.224" y="165.426" data-original="#9e9e9e" style=""/><rect xmlns="http://www.w3.org/2000/svg" fill="#9e9e9e" height="25.182" rx="4.919" width="73.851" x="17.224" y="190.609" data-original="#9e9e9e" style=""/><rect xmlns="http://www.w3.org/2000/svg" fill="#9e9e9e" height="25.182" rx="4.919" width="73.851" x="17.224" y="140.244" data-original="#9e9e9e" style=""/><path xmlns="http://www.w3.org/2000/svg" d="m22.143 140.244h9.5a4.919 4.919 0 0 0 -4.919 4.919v15.345a4.919 4.919 0 0 0 4.919 4.919h-9.5a4.919 4.919 0 0 1 -4.919-4.919v-15.345a4.919 4.919 0 0 1 4.919-4.919z" fill="#707070" data-original="#707070" style=""/><path xmlns="http://www.w3.org/2000/svg" d="m22.143 165.426h9.5a4.919 4.919 0 0 0 -4.919 4.919v15.345a4.919 4.919 0 0 0 4.919 4.919h-9.5a4.919 4.919 0 0 1 -4.919-4.919v-15.345a4.919 4.919 0 0 1 4.919-4.919z" fill="#707070" data-original="#707070" style=""/><path xmlns="http://www.w3.org/2000/svg" d="m22.143 190.609h9.5a4.919 4.919 0 0 0 -4.919 4.919v15.345a4.919 4.919 0 0 0 4.919 4.919h-9.5a4.919 4.919 0 0 1 -4.919-4.919v-15.346a4.919 4.919 0 0 1 4.919-4.918z" fill="#707070" data-original="#707070" style=""/><rect xmlns="http://www.w3.org/2000/svg" fill="#9e9e9e" height="25.182" rx="4.919" width="73.851" x="164.925" y="165.426" data-original="#9e9e9e" style=""/><rect xmlns="http://www.w3.org/2000/svg" fill="#9e9e9e" height="25.182" rx="4.919" width="73.851" x="164.925" y="190.609" data-original="#9e9e9e" style=""/><rect xmlns="http://www.w3.org/2000/svg" fill="#9e9e9e" height="25.182" rx="4.919" width="73.851" x="164.925" y="140.244" data-original="#9e9e9e" style=""/><path xmlns="http://www.w3.org/2000/svg" d="m233.857 140.244h-9.5a4.919 4.919 0 0 1 4.919 4.919v15.345a4.919 4.919 0 0 1 -4.919 4.919h9.5a4.919 4.919 0 0 0 4.919-4.919v-15.345a4.919 4.919 0 0 0 -4.919-4.919z" fill="#cecece" data-original="#cecece" style=""/><path xmlns="http://www.w3.org/2000/svg" d="m233.857 165.426h-9.5a4.919 4.919 0 0 1 4.919 4.919v15.345a4.919 4.919 0 0 1 -4.919 4.919h9.5a4.919 4.919 0 0 0 4.919-4.919v-15.345a4.919 4.919 0 0 0 -4.919-4.919z" fill="#cecece" data-original="#cecece" style=""/><path xmlns="http://www.w3.org/2000/svg" d="m233.857 190.609h-9.5a4.919 4.919 0 0 1 4.919 4.919v15.345a4.919 4.919 0 0 1 -4.919 4.919h9.5a4.919 4.919 0 0 0 4.919-4.919v-15.346a4.919 4.919 0 0 0 -4.919-4.918z" fill="#cecece" data-original="#cecece" style=""/><rect xmlns="http://www.w3.org/2000/svg" fill="#f8af23" height="7.043" rx="1.43" width="7.043" x="149.837" y="38.306" data-original="#f8af23" style=""/><path xmlns="http://www.w3.org/2000/svg" d="m99.119 38.306h39.168v7.043h-39.168z" fill="#f8af23" data-original="#f8af23" style=""/><rect xmlns="http://www.w3.org/2000/svg" fill="#f8af23" height="7.043" rx="1.43" width="7.043" x="149.837" y="63.486" data-original="#f8af23" style=""/><path xmlns="http://www.w3.org/2000/svg" d="m99.119 63.486h39.168v7.043h-39.168z" fill="#f8af23" data-original="#f8af23" style=""/><rect xmlns="http://www.w3.org/2000/svg" fill="#f8af23" height="7.043" rx="1.43" width="7.043" x="149.837" y="88.67" data-original="#f8af23" style=""/><path xmlns="http://www.w3.org/2000/svg" d="m99.119 88.67h39.168v7.043h-39.168z" fill="#f8af23" data-original="#f8af23" style=""/><rect xmlns="http://www.w3.org/2000/svg" fill="#f8af23" height="7.043" rx="1.43" width="7.043" x="75.987" y="149.314" data-original="#f8af23" style=""/><path xmlns="http://www.w3.org/2000/svg" d="m25.269 149.314h39.168v7.043h-39.168z" fill="#f8af23" data-original="#f8af23" style=""/><rect xmlns="http://www.w3.org/2000/svg" fill="#f8af23" height="7.043" rx="1.43" width="7.043" x="75.987" y="174.497" data-original="#f8af23" style=""/><path xmlns="http://www.w3.org/2000/svg" d="m25.269 174.497h39.168v7.043h-39.168z" fill="#f8af23" data-original="#f8af23" style=""/><rect xmlns="http://www.w3.org/2000/svg" fill="#f8af23" height="7.043" rx="1.43" width="7.043" x="75.987" y="199.678" data-original="#f8af23" style=""/><path xmlns="http://www.w3.org/2000/svg" d="m25.269 199.678h39.168v7.043h-39.168z" fill="#f8af23" data-original="#f8af23" style=""/><rect xmlns="http://www.w3.org/2000/svg" fill="#f8af23" height="7.043" rx="1.43" width="7.043" x="223.687" y="149.314" data-original="#f8af23" style=""/><path xmlns="http://www.w3.org/2000/svg" d="m172.969 149.314h39.168v7.043h-39.168z" fill="#f8af23" data-original="#f8af23" style=""/><rect xmlns="http://www.w3.org/2000/svg" fill="#f8af23" height="7.043" rx="1.43" width="7.043" x="223.687" y="174.497" data-original="#f8af23" style=""/><path xmlns="http://www.w3.org/2000/svg" d="m172.969 174.497h39.168v7.043h-39.168z" fill="#f8af23" data-original="#f8af23" style=""/><rect xmlns="http://www.w3.org/2000/svg" fill="#f8af23" height="7.043" rx="1.43" width="7.043" x="223.687" y="199.678" data-original="#f8af23" style=""/><path xmlns="http://www.w3.org/2000/svg" d="m172.969 199.678h39.168v7.043h-39.168z" fill="#f8af23" data-original="#f8af23" style=""/><path xmlns="http://www.w3.org/2000/svg" d="m145.883 184.529c-.187.523-.4 1.026-.631 1.524l4.686 4.686-9.213 9.213-4.686-4.686c-.5.232-1.006.444-1.524.631v6.629h-13.027v-6.626c-.518-.187-1.026-.4-1.524-.631l-4.686 4.686-9.213-9.213 4.686-4.686c-.232-.5-.444-1-.631-1.524h-6.63v-13.032h6.629c.187-.518.4-1.026.631-1.524l-4.686-4.686 9.213-9.213 4.686 4.691c.5-.232 1.006-.449 1.524-.636v-6.622h13.026v6.624c.518.187 1.026.4 1.524.636l4.686-4.691 9.213 9.213-4.686 4.686c.232.5.444 1.006.631 1.524h6.624v13.026z" fill="#f46275" data-original="#f46275" style=""/><path xmlns="http://www.w3.org/2000/svg" d="m120.251 186.053c-.232-.5-.444-1-.631-1.524h-6.63v-13.029h6.629c.187-.518.4-1.026.631-1.524l-4.686-4.686 4.612-4.611c-.07.032-.143.056-.212.089l-4.686-4.691-9.213 9.213 4.686 4.686c-.232.5-.444 1.006-.631 1.524h-6.63v13.026h6.629c.187.523.4 1.026.631 1.524l-4.686 4.686 9.213 9.213 4.686-4.686c.072.033.148.058.22.091l-4.619-4.619z" fill="#f43075" data-original="#f43075" style=""/><circle xmlns="http://www.w3.org/2000/svg" cx="128.001" cy="178.017" fill="#63bce7" r="8.295" data-original="#63bce7" style=""/><path xmlns="http://www.w3.org/2000/svg" d="m72.032 73.521c-.187.523-.4 1.026-.631 1.524l4.686 4.686-9.213 9.213-4.686-4.686c-.5.232-1.006.444-1.524.631v6.629h-13.027v-6.628c-.518-.187-1.026-.4-1.524-.631l-4.686 4.686-9.213-9.213 4.686-4.687c-.232-.5-.444-1-.631-1.524h-6.629v-13.021h6.629c.187-.518.4-1.026.631-1.524l-4.686-4.686 9.213-9.213 4.686 4.691c.5-.232 1.006-.449 1.524-.636v-6.632h13.026v6.624c.518.187 1.026.4 1.524.636l4.686-4.691 9.213 9.213-4.686 4.689c.232.5.444 1.006.631 1.524h6.624v13.026z" fill="#f46275" data-original="#f46275" style=""/><path xmlns="http://www.w3.org/2000/svg" d="m46.4 75.045c-.232-.5-.444-1-.631-1.524h-6.629v-13.021h6.629c.187-.518.4-1.026.631-1.524l-4.686-4.686 4.612-4.612c-.07.032-.143.056-.213.089l-4.686-4.691-9.213 9.213 4.686 4.682c-.232.5-.444 1.006-.631 1.524h-6.629v13.026h6.629c.187.523.4 1.026.631 1.524l-4.686 4.686 9.213 9.213 4.686-4.686c.072.033.148.058.22.091l-4.619-4.619z" fill="#f43075" data-original="#f43075" style=""/><circle xmlns="http://www.w3.org/2000/svg" cx="54.15" cy="67.009" fill="#63bce7" r="8.295" data-original="#63bce7" style=""/><path xmlns="http://www.w3.org/2000/svg" d="m219.734 73.521c-.187.523-.4 1.026-.631 1.524l4.686 4.686-9.213 9.213-4.686-4.686c-.5.232-1.006.444-1.524.631v6.629h-13.027v-6.628c-.518-.187-1.026-.4-1.524-.631l-4.686 4.686-9.213-9.213 4.686-4.686c-.232-.5-.444-1-.631-1.524h-6.629v-13.022h6.629c.187-.518.4-1.026.631-1.524l-4.686-4.686 9.213-9.213 4.686 4.691c.5-.232 1.006-.449 1.524-.636v-6.632h13.026v6.624c.518.187 1.026.4 1.524.636l4.686-4.691 9.213 9.213-4.688 4.689c.232.5.444 1.006.631 1.524h6.624v13.026z" fill="#f46275" data-original="#f46275" style=""/><path xmlns="http://www.w3.org/2000/svg" d="m226.358 73.521v-13.021h-6.624c-.187-.518-.4-1.026-.631-1.524l4.686-4.686-9.213-9.213-4.686 4.691c-.069-.032-.143-.057-.213-.089l4.612 4.612-4.689 4.68c.232.5.444 1.006.631 1.524h6.624v13.026h-6.624c-.187.523-.4 1.026-.631 1.524l4.686 4.686-4.619 4.619c.072-.033.148-.058.22-.091l4.686 4.686 9.213-9.213-4.686-4.687c.232-.5.444-1 .631-1.524z" fill="#f48875" data-original="#f48875" style=""/><circle xmlns="http://www.w3.org/2000/svg" cx="201.852" cy="67.009" fill="#63bce7" r="8.295" data-original="#63bce7" style=""/><g xmlns="http://www.w3.org/2000/svg" fill="#3f3679"><path d="m155.451 36.806h-4.185a2.932 2.932 0 0 0 -2.929 2.93v4.184a2.932 2.932 0 0 0 2.929 2.93h4.185a2.933 2.933 0 0 0 2.93-2.93v-4.185a2.933 2.933 0 0 0 -2.93-2.929zm-.07 7.043h-4.043v-4.049l4.043-.069z" fill="#3f3679" data-original="#3f3679" style=""/><path d="m138.288 36.806h-39.168a1.5 1.5 0 0 0 -1.5 1.5v7.043a1.5 1.5 0 0 0 1.5 1.5h39.168a1.5 1.5 0 0 0 1.5-1.5v-7.043a1.5 1.5 0 0 0 -1.5-1.5zm-1.5 7.043h-36.168v-4.043h36.168z" fill="#3f3679" data-original="#3f3679" style=""/><path d="m151.267 72.029h4.185a2.933 2.933 0 0 0 2.93-2.93v-4.183a2.933 2.933 0 0 0 -2.93-2.93h-4.185a2.932 2.932 0 0 0 -2.929 2.93v4.184a2.932 2.932 0 0 0 2.929 2.929zm.071-7.044 4.043-.069v4.113h-4.043z" fill="#3f3679" data-original="#3f3679" style=""/><path d="m99.12 72.029h39.168a1.5 1.5 0 0 0 1.5-1.5v-7.043a1.5 1.5 0 0 0 -1.5-1.5h-39.168a1.5 1.5 0 0 0 -1.5 1.5v7.043a1.5 1.5 0 0 0 1.5 1.5zm1.5-7.043h36.168v4.043h-36.168z" fill="#3f3679" data-original="#3f3679" style=""/><path d="m151.267 97.214h4.185a2.933 2.933 0 0 0 2.93-2.93v-4.184a2.933 2.933 0 0 0 -2.93-2.93h-4.185a2.932 2.932 0 0 0 -2.929 2.93v4.185a2.932 2.932 0 0 0 2.929 2.929zm.071-7.045 4.043-.069v4.114h-4.043z" fill="#3f3679" data-original="#3f3679" style=""/><path d="m99.12 97.214h39.168a1.5 1.5 0 0 0 1.5-1.5v-7.044a1.5 1.5 0 0 0 -1.5-1.5h-39.168a1.5 1.5 0 0 0 -1.5 1.5v7.044a1.5 1.5 0 0 0 1.5 1.5zm1.5-7.044h36.168v4.044h-36.168z" fill="#3f3679" data-original="#3f3679" style=""/><path d="m81.6 147.813h-4.184a2.933 2.933 0 0 0 -2.929 2.93v4.184a2.933 2.933 0 0 0 2.929 2.93h4.184a2.933 2.933 0 0 0 2.93-2.93v-4.184a2.933 2.933 0 0 0 -2.93-2.93zm-.07 7.044-4.043.069-.071-4.113 4.114-.07z" fill="#3f3679" data-original="#3f3679" style=""/><path d="m64.437 147.813h-39.168a1.5 1.5 0 0 0 -1.5 1.5v7.043a1.5 1.5 0 0 0 1.5 1.5h39.168a1.5 1.5 0 0 0 1.5-1.5v-7.043a1.5 1.5 0 0 0 -1.5-1.5zm-1.5 7.043h-36.168v-4.043h36.168z" fill="#3f3679" data-original="#3f3679" style=""/><path d="m81.6 173h-4.184a2.933 2.933 0 0 0 -2.929 2.93v4.184a2.933 2.933 0 0 0 2.929 2.93h4.184a2.933 2.933 0 0 0 2.93-2.93v-4.184a2.933 2.933 0 0 0 -2.93-2.93zm-.07 7.044-4.043.069-.071-4.113 4.114-.07z" fill="#3f3679" data-original="#3f3679" style=""/><path d="m64.437 173h-39.168a1.5 1.5 0 0 0 -1.5 1.5v7.043a1.5 1.5 0 0 0 1.5 1.5h39.168a1.5 1.5 0 0 0 1.5-1.5v-7.043a1.5 1.5 0 0 0 -1.5-1.5zm-1.5 7.043h-36.168v-4.043h36.168z" fill="#3f3679" data-original="#3f3679" style=""/><path d="m81.6 198.178h-4.184a2.933 2.933 0 0 0 -2.929 2.93v4.185a2.933 2.933 0 0 0 2.929 2.93h4.184a2.933 2.933 0 0 0 2.93-2.93v-4.185a2.933 2.933 0 0 0 -2.93-2.93zm-.07 7.045-4.043.069-.071-4.114 4.114-.07z" fill="#3f3679" data-original="#3f3679" style=""/><path d="m64.437 198.178h-39.168a1.5 1.5 0 0 0 -1.5 1.5v7.044a1.5 1.5 0 0 0 1.5 1.5h39.168a1.5 1.5 0 0 0 1.5-1.5v-7.044a1.5 1.5 0 0 0 -1.5-1.5zm-1.5 7.044h-36.168v-4.044h36.168z" fill="#3f3679" data-original="#3f3679" style=""/><path d="m225.116 157.856h4.184a2.933 2.933 0 0 0 2.93-2.93v-4.184a2.933 2.933 0 0 0 -2.93-2.93h-4.185a2.932 2.932 0 0 0 -2.929 2.93v4.184a2.932 2.932 0 0 0 2.93 2.93zm.071-7.044 4.043-.069v4.113h-4.043z" fill="#3f3679" data-original="#3f3679" style=""/><path d="m171.469 149.313v7.043a1.5 1.5 0 0 0 1.5 1.5h39.169a1.5 1.5 0 0 0 1.5-1.5v-7.043a1.5 1.5 0 0 0 -1.5-1.5h-39.169a1.5 1.5 0 0 0 -1.5 1.5zm3 1.5h36.169v4.043h-36.169z" fill="#3f3679" data-original="#3f3679" style=""/><path d="m225.116 183.04h4.184a2.933 2.933 0 0 0 2.93-2.93v-4.184a2.933 2.933 0 0 0 -2.93-2.926h-4.185a2.932 2.932 0 0 0 -2.929 2.93v4.184a2.932 2.932 0 0 0 2.93 2.926zm.071-7.044 4.043-.069v4.113h-4.043z" fill="#3f3679" data-original="#3f3679" style=""/><path d="m172.969 183.04h39.169a1.5 1.5 0 0 0 1.5-1.5v-7.04a1.5 1.5 0 0 0 -1.5-1.5h-39.169a1.5 1.5 0 0 0 -1.5 1.5v7.043a1.5 1.5 0 0 0 1.5 1.497zm1.5-7.043h36.169v4.043h-36.169z" fill="#3f3679" data-original="#3f3679" style=""/><path d="m225.116 208.222h4.184a2.933 2.933 0 0 0 2.93-2.93v-4.185a2.933 2.933 0 0 0 -2.93-2.93h-4.185a2.932 2.932 0 0 0 -2.929 2.93v4.185a2.932 2.932 0 0 0 2.93 2.93zm.071-7.045 4.043-.069v4.114h-4.043z" fill="#3f3679" data-original="#3f3679" style=""/><path d="m172.969 208.222h39.169a1.5 1.5 0 0 0 1.5-1.5v-7.044a1.5 1.5 0 0 0 -1.5-1.5h-39.169a1.5 1.5 0 0 0 -1.5 1.5v7.044a1.5 1.5 0 0 0 1.5 1.5zm1.5-7.044h36.169v4.044h-36.169z" fill="#3f3679" data-original="#3f3679" style=""/><path d="m27.323 225.264h-18a1.5 1.5 0 1 0 0 3h18a1.5 1.5 0 1 0 0-3z" fill="#3f3679" data-original="#3f3679" style=""/><path d="m246.68 225.264h-18a1.5 1.5 0 0 0 0 3h18a1.5 1.5 0 0 0 0-3z" fill="#3f3679" data-original="#3f3679" style=""/><path d="m218.479 225.264h-180.958a1.5 1.5 0 0 0 0 3h180.958a1.5 1.5 0 0 0 0-3z" fill="#3f3679" data-original="#3f3679" style=""/><path d="m9.32 217.291h237.36a1.5 1.5 0 0 0 0-3h-7.4a6.372 6.372 0 0 0 1-3.419v-15.345a6.406 6.406 0 0 0 -2.3-4.919 6.406 6.406 0 0 0 2.3-4.919v-15.344a6.4 6.4 0 0 0 -2.3-4.918 6.406 6.406 0 0 0 2.3-4.919v-15.345a6.427 6.427 0 0 0 -6.419-6.419h-30.51v-45.726h5.016a1.5 1.5 0 0 0 1.5-1.5v-5.163l3.649 3.65a1.5 1.5 0 0 0 2.121 0l9.212-9.213a1.5 1.5 0 0 0 0-2.121l-3.649-3.649h5.161a1.5 1.5 0 0 0 1.5-1.5v-13.022a1.5 1.5 0 0 0 -1.5-1.5h-5.161l3.649-3.649a1.5 1.5 0 0 0 0-2.121l-9.212-9.212a1.5 1.5 0 0 0 -2.121 0l-3.649 3.649v-5.167a1.5 1.5 0 0 0 -1.5-1.5h-13.029a1.5 1.5 0 0 0 -1.5 1.5v5.162l-3.649-3.649a1.5 1.5 0 0 0 -2.121 0l-9.212 9.212a1.5 1.5 0 0 0 0 2.121l3.644 3.654h-5.161a1.5 1.5 0 0 0 -1.5 1.5v5.01h-9.418v-6.173a6.4 6.4 0 0 0 -2.3-4.918 6.406 6.406 0 0 0 2.3-4.919v-15.345a6.427 6.427 0 0 0 -6.419-6.419h-64.009a6.426 6.426 0 0 0 -6.418 6.419v15.345a6.406 6.406 0 0 0 2.3 4.919 6.4 6.4 0 0 0 -2.3 4.918v6.173h-9.416v-5.01a1.5 1.5 0 0 0 -1.5-1.5h-5.159l3.649-3.649a1.5 1.5 0 0 0 0-2.121l-9.212-9.212a1.5 1.5 0 0 0 -2.121 0l-3.65 3.649v-5.167a1.5 1.5 0 0 0 -1.5-1.5h-13.029a1.5 1.5 0 0 0 -1.5 1.5v5.162l-3.65-3.649a1.5 1.5 0 0 0 -2.121 0l-9.212 9.212a1.5 1.5 0 0 0 0 2.121l3.646 3.654h-5.158a1.5 1.5 0 0 0 -1.5 1.5v13.022a1.5 1.5 0 0 0 1.5 1.5h5.158l-3.649 3.649a1.5 1.5 0 0 0 0 2.121l9.212 9.213a1.544 1.544 0 0 0 2.121 0l3.65-3.65v5.162a1.5 1.5 0 0 0 1.5 1.5h5.013v45.727h-30.504a6.426 6.426 0 0 0 -6.419 6.419v15.345a6.406 6.406 0 0 0 2.3 4.919 6.4 6.4 0 0 0 -2.3 4.918v15.345a6.406 6.406 0 0 0 2.3 4.919 6.406 6.406 0 0 0 -2.3 4.919v15.345a6.372 6.372 0 0 0 1 3.419h-7.404a1.5 1.5 0 1 0 0 3zm80.952-26.683a6.406 6.406 0 0 0 2.3-4.919v-6.172h9.418v5.013a1.5 1.5 0 0 0 1.5 1.5h5.161l-3.651 3.65a1.5 1.5 0 0 0 0 2.121l9.212 9.213a1.544 1.544 0 0 0 2.121 0l3.649-3.65v5.162a1.5 1.5 0 0 0 1.5 1.5h13.027a1.5 1.5 0 0 0 1.5-1.5v-5.162l3.65 3.65a1.544 1.544 0 0 0 2.121 0l9.22-9.214a1.5 1.5 0 0 0 0-2.121l-3.649-3.649h5.161a1.5 1.5 0 0 0 1.5-1.5v-5.013h9.416v6.172a6.406 6.406 0 0 0 2.3 4.919 6.406 6.406 0 0 0 -2.3 4.919v15.345a6.373 6.373 0 0 0 1 3.419h-72.849a6.372 6.372 0 0 0 1-3.419v-15.345a6.406 6.406 0 0 0 -2.307-4.919zm21.541-21.688-3.627-3.627 7.091-7.091 3.627 3.627a1.5 1.5 0 0 0 1.7.3c.485-.227.943-.418 1.4-.585a1.5 1.5 0 0 0 .986-1.409v-5.125h10.027v5.125a1.5 1.5 0 0 0 .986 1.409c.454.166.925.362 1.4.585a1.5 1.5 0 0 0 1.7-.3l3.628-3.627 7.091 7.091-3.627 3.627a1.5 1.5 0 0 0 -.3 1.693c.229.491.42.95.585 1.4a1.5 1.5 0 0 0 1.409.986h5.125v10.031h-5.125a1.5 1.5 0 0 0 -1.409.986c-.167.457-.358.916-.585 1.4a1.5 1.5 0 0 0 .3 1.694l3.627 3.627-7.091 7.092-3.631-3.629a1.5 1.5 0 0 0 -1.7-.3c-.475.223-.945.419-1.4.585a1.5 1.5 0 0 0 -.986 1.409v5.125h-10.027v-5.119a1.5 1.5 0 0 0 -.986-1.409c-.458-.167-.916-.358-1.4-.585a1.5 1.5 0 0 0 -1.7.3l-3.627 3.628-7.091-7.092 3.627-3.627a1.5 1.5 0 0 0 .3-1.7c-.228-.487-.419-.945-.584-1.4a1.5 1.5 0 0 0 -1.41-.987h-5.125v-10.028h5.125a1.5 1.5 0 0 0 1.41-.987c.164-.45.355-.908.585-1.4a1.5 1.5 0 0 0 -.298-1.693zm125.463 26.607v15.345a3.423 3.423 0 0 1 -3.419 3.419h-64.013a3.423 3.423 0 0 1 -3.418-3.419v-15.345a3.423 3.423 0 0 1 3.418-3.419h64.014a3.423 3.423 0 0 1 3.418 3.419zm0-25.183v15.345a3.423 3.423 0 0 1 -3.419 3.419h-64.013a3.423 3.423 0 0 1 -3.418-3.419v-15.344a3.422 3.422 0 0 1 3.418-3.418h64.014a3.423 3.423 0 0 1 3.418 3.418zm0-25.182v15.345a3.423 3.423 0 0 1 -3.419 3.419h-64.013a3.423 3.423 0 0 1 -3.418-3.419v-15.344a3.423 3.423 0 0 1 3.418-3.419h64.014a3.423 3.423 0 0 1 3.418 3.419zm-58.432-83.162h5.125a1.5 1.5 0 0 0 1.41-.988c.161-.443.352-.9.584-1.4a1.5 1.5 0 0 0 -.3-1.693l-3.627-3.627 7.091-7.091 3.627 3.627a1.5 1.5 0 0 0 1.7.3c.477-.223.948-.42 1.4-.585a1.5 1.5 0 0 0 .985-1.409v-5.134h10.028v5.125a1.5 1.5 0 0 0 .985 1.409c.453.165.925.362 1.4.585a1.5 1.5 0 0 0 1.7-.3l3.627-3.627 7.091 7.091-3.627 3.627a1.5 1.5 0 0 0 -.3 1.693c.229.491.42.95.585 1.4a1.5 1.5 0 0 0 1.409.986h5.125v10.033h-5.125a1.5 1.5 0 0 0 -1.409.986c-.165.453-.356.912-.585 1.4a1.5 1.5 0 0 0 .3 1.693l3.627 3.627-7.091 7.092-3.63-3.62a1.494 1.494 0 0 0 -1.7-.3c-.477.223-.948.42-1.4.585a1.5 1.5 0 0 0 -.985 1.409v5.125h-10.026v-5.126a1.5 1.5 0 0 0 -.985-1.409c-.453-.165-.925-.362-1.4-.585a1.5 1.5 0 0 0 -1.7.3l-3.627 3.628-7.091-7.092 3.627-3.627a1.5 1.5 0 0 0 .3-1.693c-.232-.5-.423-.958-.584-1.4a1.5 1.5 0 0 0 -1.41-.988h-5.125zm-3 6.515v5.013a1.5 1.5 0 0 0 1.5 1.5h5.156l-3.649 3.649a1.5 1.5 0 0 0 0 2.121l9.212 9.213a1.544 1.544 0 0 0 2.121 0l3.649-3.65v5.162a1.5 1.5 0 0 0 1.5 1.5h5.013v45.727h-30.502a6.426 6.426 0 0 0 -6.418 6.419v15.345a6.406 6.406 0 0 0 2.3 4.919 6.405 6.405 0 0 0 -2.3 4.918v6.173h-9.416v-5.024a1.5 1.5 0 0 0 -1.5-1.5h-5.161l3.651-3.646a1.5 1.5 0 0 0 0-2.121l-9.212-9.212a1.5 1.5 0 0 0 -2.121 0l-3.65 3.649v-5.162a1.5 1.5 0 0 0 -1.5-1.5h-5.017v-45.725h30.507a6.427 6.427 0 0 0 6.419-6.419v-15.344a6.406 6.406 0 0 0 -2.3-4.919 6.406 6.406 0 0 0 2.3-4.919v-6.172zm-83.269 16.005a3.423 3.423 0 0 1 3.418-3.42h64.014a3.423 3.423 0 0 1 3.419 3.419v15.345a3.423 3.423 0 0 1 -3.419 3.419h-64.014a3.423 3.423 0 0 1 -3.418-3.419zm0-35.02v-15.345a3.423 3.423 0 0 1 3.418-3.419h64.014a3.423 3.423 0 0 1 3.419 3.419v15.345a3.423 3.423 0 0 1 -3.419 3.419h-64.014a3.423 3.423 0 0 1 -3.418-3.419zm67.432 6.419a3.423 3.423 0 0 1 3.419 3.418v15.345a3.423 3.423 0 0 1 -3.419 3.419h-64.014a3.423 3.423 0 0 1 -3.418-3.419v-15.345a3.422 3.422 0 0 1 3.418-3.418zm-111.856 27.564c-.454-.165-.925-.362-1.4-.585a1.5 1.5 0 0 0 -1.7.3l-3.627 3.628-7.091-7.092 3.627-3.627a1.5 1.5 0 0 0 .3-1.694c-.23-.493-.421-.951-.585-1.4a1.5 1.5 0 0 0 -1.41-.987h-5.123v-10.026h5.125a1.5 1.5 0 0 0 1.41-.987c.164-.45.355-.908.585-1.4a1.5 1.5 0 0 0 -.3-1.694l-3.627-3.627 7.09-7.091 3.627 3.627a1.5 1.5 0 0 0 1.7.3c.476-.223.947-.42 1.4-.585a1.5 1.5 0 0 0 .986-1.409v-5.134h10.026v5.125a1.5 1.5 0 0 0 .986 1.409c.454.165.925.362 1.4.585a1.5 1.5 0 0 0 1.7-.3l3.627-3.627 7.091 7.091-3.627 3.627a1.5 1.5 0 0 0 -.3 1.693c.23.5.422.954.585 1.4a1.5 1.5 0 0 0 1.41.987h5.125v10.032h-5.127a1.5 1.5 0 0 0 -1.41.987c-.163.448-.354.907-.585 1.4a1.5 1.5 0 0 0 .3 1.693l3.627 3.627-7.091 7.092-3.628-3.621a1.5 1.5 0 0 0 -1.7-.3c-.476.223-.947.42-1.4.585a1.5 1.5 0 0 0 -.986 1.409v5.125h-10.024v-5.126a1.5 1.5 0 0 0 -.986-1.41zm7.5 9.534h5.015a1.5 1.5 0 0 0 1.5-1.5v-5.162l3.65 3.65a1.544 1.544 0 0 0 2.121 0l9.212-9.213a1.5 1.5 0 0 0 0-2.121l-3.649-3.649h5.161a1.5 1.5 0 0 0 1.5-1.5v-5.012h9.416v6.172a6.406 6.406 0 0 0 2.3 4.919 6.406 6.406 0 0 0 -2.3 4.919v15.344a6.426 6.426 0 0 0 6.418 6.419h30.505v45.725h-5.013a1.5 1.5 0 0 0 -1.5 1.5v5.162l-3.649-3.649a1.5 1.5 0 0 0 -2.121 0l-9.217 9.211a1.5 1.5 0 0 0 0 2.121l3.654 3.647h-5.161a1.5 1.5 0 0 0 -1.5 1.5v5.015h-9.418v-6.173a6.4 6.4 0 0 0 -2.3-4.918 6.406 6.406 0 0 0 2.3-4.919v-15.342a6.426 6.426 0 0 0 -6.419-6.419h-30.507zm-36.926 67.49v-15.344a3.423 3.423 0 0 1 3.419-3.419h64.012a3.423 3.423 0 0 1 3.419 3.419v15.345a3.423 3.423 0 0 1 -3.419 3.419h-64.013a3.423 3.423 0 0 1 -3.419-3.419zm0 25.182v-15.344a3.422 3.422 0 0 1 3.419-3.418h64.012a3.422 3.422 0 0 1 3.419 3.418v15.345a3.423 3.423 0 0 1 -3.419 3.419h-64.013a3.423 3.423 0 0 1 -3.419-3.42zm0 25.183v-15.345a3.423 3.423 0 0 1 3.419-3.419h64.012a3.423 3.423 0 0 1 3.419 3.419v15.345a3.423 3.423 0 0 1 -3.419 3.419h-64.013a3.423 3.423 0 0 1 -3.419-3.419z" fill="#3f3679" data-original="#3f3679" style=""/><path d="m128 187.812a9.795 9.795 0 1 0 -9.795-9.795 9.805 9.805 0 0 0 9.795 9.795zm0-16.59a6.795 6.795 0 1 1 -6.795 6.795 6.8 6.8 0 0 1 6.795-6.795z" fill="#3f3679" data-original="#3f3679" style=""/><path d="m63.945 67.009a9.795 9.795 0 1 0 -9.795 9.791 9.806 9.806 0 0 0 9.795-9.791zm-16.59 0a6.795 6.795 0 1 1 6.795 6.791 6.8 6.8 0 0 1 -6.795-6.791z" fill="#3f3679" data-original="#3f3679" style=""/><path d="m201.852 76.8a9.795 9.795 0 1 0 -9.795-9.795 9.806 9.806 0 0 0 9.795 9.795zm0-16.59a6.795 6.795 0 1 1 -6.795 6.795 6.8 6.8 0 0 1 6.795-6.791z" fill="#3f3679" data-original="#3f3679" style=""/></g></g></svg>
