<?xml version="1.0"?>
<svg xmlns="http://www.w3.org/2000/svg" xmlns:xlink="http://www.w3.org/1999/xlink" xmlns:svgjs="http://svgjs.com/svgjs" version="1.1" width="512" height="512" x="0" y="0" viewBox="0 0 64 64" style="enable-background:new 0 0 512 512" xml:space="preserve"><g><path xmlns="http://www.w3.org/2000/svg" d="m59 57h-54a2 2 0 0 1 -2-2v-6h58v6a2 2 0 0 1 -2 2z" fill="#57565c" data-original="#57565c" style=""/><path xmlns="http://www.w3.org/2000/svg" d="m25 49h14v4h-14z" fill="#e9e9ea" data-original="#e9e9ea" style=""/><path xmlns="http://www.w3.org/2000/svg" d="m6 15h52a2 2 0 0 1 2 2v32a0 0 0 0 1 0 0h-56a0 0 0 0 1 0 0v-32a2 2 0 0 1 2-2z" fill="#e9e9ea" data-original="#e9e9ea" style=""/><path xmlns="http://www.w3.org/2000/svg" d="m8 20h48v29h-48z" fill="#2488ff" data-original="#2488ff" style=""/><path xmlns="http://www.w3.org/2000/svg" d="m59 57h-54a2 2 0 0 1 -2-2v-6h58v6a2 2 0 0 1 -2 2z" fill="#57565c" data-original="#57565c" style=""/><path xmlns="http://www.w3.org/2000/svg" d="m25 49h14v4h-14z" fill="#e9e9ea" data-original="#e9e9ea" style=""/><path xmlns="http://www.w3.org/2000/svg" d="m6 15h52a2 2 0 0 1 2 2v32a0 0 0 0 1 0 0h-56a0 0 0 0 1 0 0v-32a2 2 0 0 1 2-2z" fill="#e9e9ea" data-original="#e9e9ea" style=""/><path xmlns="http://www.w3.org/2000/svg" d="m8 20h48v29h-48z" fill="#2488ff" data-original="#2488ff" style=""/><rect xmlns="http://www.w3.org/2000/svg" fill="#ffc740" height="32" rx="2" width="36" x="14" y="5" data-original="#ffc740" style=""/><path xmlns="http://www.w3.org/2000/svg" d="m20.1 12.1 4 4 2.121-.707.708-2.121-4-4a5.991 5.991 0 0 1 8.578 5.486 3.932 3.932 0 0 0 1.164 2.842l9.815 9.815a3 3 0 0 1 0 4.242 3 3 0 0 1 -4.243 0l-9.807-9.807a4.064 4.064 0 0 0 -2.9-1.167 5.99 5.99 0 0 1 -5.436-8.583z" fill="#d8d7da" data-original="#d8d7da" style=""/><path xmlns="http://www.w3.org/2000/svg" d="m38.657 8.343a3 3 0 0 1 3 3v11a0 0 0 0 1 0 0h-6a0 0 0 0 1 0 0v-11a3 3 0 0 1 3-3z" fill="#8cc63e" transform="matrix(.707 .707 -.707 .707 22.172 -22.841)" data-original="#8cc63e" style=""/><path xmlns="http://www.w3.org/2000/svg" d="m28.757 28.071 6.364-6.364-2.828-2.828-6.364 6.364h-1.414l-3.536 4.949 2.829 2.829 4.949-3.536z" fill="#e9e9ea" data-original="#e9e9ea" style=""/><path xmlns="http://www.w3.org/2000/svg" d="m61 48v-31a3.009 3.009 0 0 0 -3-3h-7v-7a3.009 3.009 0 0 0 -3-3h-32a3.009 3.009 0 0 0 -3 3v7h-7a3.009 3.009 0 0 0 -3 3v31a1 1 0 0 0 -1 1v6a3.009 3.009 0 0 0 3 3h54a3.009 3.009 0 0 0 3-3v-6a1 1 0 0 0 -1-1zm-10-32h7a1 1 0 0 1 1 1v31h-2v-28a1 1 0 0 0 -1-1h-5zm-36-9a1 1 0 0 1 1-1h32a1 1 0 0 1 1 1v28a1 1 0 0 1 -1 1h-32a1 1 0 0 1 -1-1zm1 31h32a3.009 3.009 0 0 0 3-3v-14h4v27h-46v-27h4v14a3.009 3.009 0 0 0 3 3zm22 12v2h-12v-2zm-33-33a1 1 0 0 1 1-1h7v3h-5a1 1 0 0 0 -1 1v28h-2zm55 38a1 1 0 0 1 -1 1h-54a1 1 0 0 1 -1-1v-5h20v3a1 1 0 0 0 1 1h14a1 1 0 0 0 1-1v-3h20z" fill="#000000" data-original="#000000" style=""/><path xmlns="http://www.w3.org/2000/svg" d="m25.492 21.68a3.073 3.073 0 0 1 1.947.639l-1.924 1.924h-1a1 1 0 0 0 -.814.419l-3.535 4.949a1 1 0 0 0 .106 1.288l2.828 2.829a1 1 0 0 0 1.288.107l4.95-3.536a1 1 0 0 0 .419-.814v-1l1.951-1.951 5.824 5.833a3.971 3.971 0 0 0 2.828 1.173 4.005 4.005 0 0 0 2.84-6.84l-5.122-5.122 6.238-6.238a4 4 0 1 0 -5.656-5.656l-6 6a2.9 2.9 0 0 1 -.146-.915 6.938 6.938 0 0 0 -2.045-5.042 7.017 7.017 0 0 0 -7.969-1.349 1 1 0 0 0 -.273 1.61l3.56 3.552-.357 1.06-1.061.355-3.562-3.562a1.011 1.011 0 0 0 -.875-.279 1 1 0 0 0 -.734.554 7.076 7.076 0 0 0 .636 7.124 6.968 6.968 0 0 0 5.658 2.888zm2.559 5.684a1 1 0 0 0 -.293.707v.9l-3.842 2.744-1.631-1.631 2.744-3.841h.9a1 1 0 0 0 .707-.293l5.657-5.657 1.414 1.414zm13.732.753a2.012 2.012 0 0 1 .006 2.83 2.055 2.055 0 0 1 -2.841.007l-5.825-5.834 2-2a1 1 0 0 0 1.414 0l.124-.12zm-1.712-17.017a2.047 2.047 0 0 1 2.828 0 2 2 0 0 1 0 2.828l-7.071 7.072-2.828-2.829zm-19.5 2.88 2.827 2.826a1 1 0 0 0 1.024.241l2.12-.71a1 1 0 0 0 .631-.63l.71-2.121a1 1 0 0 0 -.242-1.025l-2.831-2.819a5.014 5.014 0 0 1 4.243 1.4 4.959 4.959 0 0 1 1.457 3.6 4.947 4.947 0 0 0 .63 2.453l-.261.261a1 1 0 0 0 0 1.414l-2.025 2.03a5.081 5.081 0 0 0 -3.329-1.224 4.9 4.9 0 0 1 -4.076-2.067 5.03 5.03 0 0 1 -.883-3.628z" fill="#000000" data-original="#000000" style=""/></g></svg>
