<svg height="512" viewBox="0 0 64 64" width="512" xmlns="http://www.w3.org/2000/svg"><g id="Harddisk"><rect fill="#a7a9ac" height="58" rx="2" width="44" x="10" y="3"/><circle cx="32" cy="25" fill="#2488ff" r="16"/><circle cx="15" cy="8" fill="#f1f2f2" r="2"/><circle cx="49" cy="8" fill="#f1f2f2" r="2"/><circle cx="15" cy="56" fill="#f1f2f2" r="2"/><circle cx="49" cy="56" fill="#f1f2f2" r="2"/><path d="m16 40v3h6l3.42-3.42 7.58-7.58z" fill="#ff3051"/><circle cx="32" cy="25" fill="#f1f2f2" r="3"/><path d="m19 61h33a2 2 0 0 0 2-2v-26c0 15.477-15.654 28-35 28z" fill="#939598"/><path d="m22 47h20v8h-20z" fill="#ffcd00"/><g fill="#231f20"><path d="m52 2h-40a3 3 0 0 0 -3 3v54a3 3 0 0 0 3 3h40a3 3 0 0 0 3-3v-54a3 3 0 0 0 -3-3zm1 57a1 1 0 0 1 -1 1h-40a1 1 0 0 1 -1-1v-54a1 1 0 0 1 1-1h40a1 1 0 0 1 1 1z"/><path d="m15 11a3 3 0 1 0 -3-3 3 3 0 0 0 3 3zm0-4a1 1 0 1 1 -1 1 1 1 0 0 1 1-1z"/><path d="m49 5a3 3 0 1 0 3 3 3 3 0 0 0 -3-3zm0 4a1 1 0 1 1 1-1 1 1 0 0 1 -1 1z"/><path d="m15 53a3 3 0 1 0 3 3 3 3 0 0 0 -3-3zm0 4a1 1 0 1 1 1-1 1 1 0 0 1 -1 1z"/><path d="m49 53a3 3 0 1 0 3 3 3 3 0 0 0 -3-3zm0 4a1 1 0 1 1 1-1 1 1 0 0 1 -1 1z"/><path d="m32 12a1 1 0 0 0 0 2 11.013 11.013 0 0 1 11 11 1 1 0 0 0 2 0 13.015 13.015 0 0 0 -13-13z"/><path d="m21 56h22v-10h-22zm2-8h18v6h-18z"/><path d="m32 21a4 4 0 1 0 4 4 4 4 0 0 0 -4-4zm0 6a2 2 0 1 1 2-2 2 2 0 0 1 -2 2z"/><path d="m32 8a16.985 16.985 0 0 0 -12.006 29.015l-4.42 2.08a1 1 0 0 0 -.574.905v3a1 1 0 0 0 1 1h6a1 1 0 0 0 .707-.293l2.957-2.957a16.714 16.714 0 0 0 6.336 1.25 17 17 0 0 0 0-34zm-10.414 34h-4.586v-1.365l11.241-5.29zm10.414-2a14.81 14.81 0 0 1 -4.8-.79l6.5-6.5a1 1 0 0 0 -1.126-1.61l-10.634 5a14.979 14.979 0 1 1 10.06 3.9z"/></g></g></svg>