<?xml version="1.0"?>
<svg xmlns="http://www.w3.org/2000/svg" xmlns:xlink="http://www.w3.org/1999/xlink" xmlns:svgjs="http://svgjs.com/svgjs" version="1.1" width="512" height="512" x="0" y="0" viewBox="0 0 480 480" style="enable-background:new 0 0 512 512" xml:space="preserve" class=""><g><path xmlns="http://www.w3.org/2000/svg" d="m8 72h384v320h-384zm0 0" fill="#1323a3" data-original="#9bfbff" style="" class=""/><path xmlns="http://www.w3.org/2000/svg" d="m397.519531 181.519531-.398437.71875.160156.160157.320312.640624 23.359376 23.199219-22.722657 22.722657-23.277343-23.359376-.5625-.480468c-.320313.160156-.636719.238281-.957032.398437-6.632812 3.984375-13.835937 6.925781-21.363281 8.71875l.082031 2-.160156.5625v31.199219h-32v-31.199219c-.101562-.554687-.152344-1.117187-.160156-1.679687v-.960938c-7.449219-1.71875-14.578125-4.609375-21.121094-8.558594l-.238281-.082031-.71875-.398437h-.160157l-.5625.398437-23.277343 23.441407-22.722657-22.722657 22.882813-22.71875.078125-.398437.800781-.800782c-.058593-.308593-.167969-.605468-.320312-.878906-3.984375-6.632812-6.925781-13.835937-8.71875-21.363281l-2 .082031-.5625-.160156h-31.199219v-32h30.878906l.960938-.320312 2.320312.320312c1.4375-7.53125 4.230469-14.742188 8.238282-21.28125l.082031-.238281.398437-.71875-.878906-.800781-.160156-.480469-22.800782-22.71875 22.722657-22.722657 21.839843 21.921876 1.917969 1.917968.242188-.160156.71875-.160156c6.644531-4.027344 13.878906-7 21.441406-8.796875l-.082031-2 .160156-.5625v-31.199219h32v31.199219c.101562.554687.152344 1.117187.160156 1.679687v.960938c7.546875 1.722656 14.761719 4.667968 21.359375 8.71875l.558594.160156.402344.242188 23.757812-23.921876 22.722657 22.722657-23.359376 23.277343-.480468.5625c.160156.320313.238281.636719.398437.957032 3.984375 6.632812 6.925781 13.835937 8.71875 21.363281l2.082031-.402344 1.039063.480469h30.640625v32h-31.199219c-.554687.101562-1.117187.152344-1.679687.160156l-.800782-.082031c-1.828124 7.464844-4.769531 14.609375-8.71875 21.203125zm0 0" fill="#ffc477" data-original="#ffc477" style=""/><g xmlns="http://www.w3.org/2000/svg" fill="#d8d7da"><path d="m306.480469 405.441406c.152343.273438.261719.570313.320312.878906l-.800781.800782-.078125.398437-12.640625 12.480469-22.320312-22.398438-.5625-.480468c-.320313.160156-.636719.238281-.957032.398437-6.632812 3.984375-13.835937 6.925781-21.363281 8.71875l.082031 2-.160156.5625v31.199219h-32v-31.199219c-.101562-.554687-.152344-1.117187-.160156-1.679687v-.960938c-7.449219-1.71875-14.578125-4.609375-21.121094-8.558594l-.238281-.082031-.71875-.398437h-.160157l-.5625.398437-23.277343 23.441407-22.722657-22.722657 22.882813-22.71875.078125-.398437.800781-.800782c-.058593-.308593-.167969-.605468-.320312-.878906-3.984375-6.632812-6.925781-13.835937-8.71875-21.363281l-2 .082031-.5625-.160156h-31.199219v-32h30.878906l.960938-.320312 2.320312.320312c1.4375-7.53125 4.230469-14.742188 8.238282-21.28125l.082031-.238281.398437-.71875-.878906-.800781-.160156-.480469-22.800782-22.71875 22.722657-22.722657 21.839843 21.921876 1.917969 1.917968.242188-.160156.71875-.160156c6.644531-4.027344 13.878906-7 21.441406-8.796875l-.082031-2 .160156-.5625v-31.199219h32v31.199219c.101562.554687.152344 1.117187.160156 1.679687v.960938c4.335938.988281 8.566406 2.378906 12.640625 4.160156 5.183594 2.324219 9.878907 5.609375 13.839844 9.679688 4 4 9.597656 9.519531 13.679687 13.601562 1.226563 1.183594 2.347657 2.46875 3.359376 3.839844l-8.640626 8.640625 22.800782 22.71875.160156.480469.878906.800781-.398437.71875-.082031.238281c-4.007813 6.539062-6.800782 13.75-8.238282 21.28125l-2.320312-.320312-.960938.320312h-30.878906v32h31.199219l.5625.160156 2-.082031c1.792969 7.527344 4.734375 14.730469 8.71875 21.363281zm0 0" fill="#d8d7da" data-original="#d8d7da" style="" class=""/><path d="m273.785156 59.097656-12.847656 12.902344h-252.9375v-48c0-8.835938 7.164062-16 16-16h352c8.835938 0 16 7.164062 16 16v41.40625l-17.535156 17.425781-5.183594-2.6875c-3.769531-1.941406-7.691406-3.5625-11.730469-4.847656l-5.550781-1.785156v-33.511719h-32v33.511719l-5.550781 1.785156c-4.039063 1.285156-7.960938 2.90625-11.730469 4.847656l-5.199219 2.6875zm0 0" fill="#d8d7da" data-original="#d8d7da" style="" class=""/><path d="m429.519531 405.519531-.398437.71875.160156.160157.320312.640624 23.359376 23.199219-22.722657 22.722657-23.277343-23.359376-.5625-.480468c-.320313.160156-.636719.238281-.957032.398437-6.632812 3.984375-13.835937 6.925781-21.363281 8.71875l.082031 2-.160156.5625v31.199219h-32v-31.199219c-.101562-.554687-.152344-1.117187-.160156-1.679687v-.960938c-7.449219-1.71875-14.578125-4.609375-21.121094-8.558594l-.238281-.082031-.71875-.398437h-.160157l-.5625.398437-23.277343 23.441407-22.722657-22.722657 10.242188-10.238281 12.640625-12.480469.078125-.398437.800781-.800782c-.058593-.308593-.167969-.605468-.320312-.878906-3.984375-6.632812-6.925781-13.835937-8.71875-21.363281l-2 .082031-.5625-.160156h-31.199219v-32h30.878906l.960938-.320312 2.320312.320312c1.4375-7.53125 4.230469-14.742188 8.238282-21.28125l.082031-.238281.398437-.71875-.878906-.800781-.160156-.480469-22.800782-22.71875 22.722657-22.722657 21.839843 21.921876 1.917969 1.917968.242188-.160156.71875-.160156c6.644531-4.027344 13.878906-7 21.441406-8.796875l-.082031-2 .160156-.5625v-31.199219h32v31.199219c.101562.554687.152344 1.117187.160156 1.679687v.960938c7.546875 1.722656 14.761719 4.667968 21.359375 8.71875l.558594.160156.402344.242188 23.757812-23.921876 22.722657 22.722657-23.359376 23.277343-.480468.5625c.160156.320313.238281.636719.398437.957032 3.984375 6.632812 6.925781 13.835937 8.71875 21.363281l2.082031-.402344 1.039063.480469h30.640625v32h-31.199219c-.554687.101562-1.117187.152344-1.679687.160156l-.800782-.082031c-1.828124 7.464844-4.769531 14.609375-8.71875 21.203125zm0 0" fill="#d8d7da" data-original="#d8d7da" style="" class=""/></g><path xmlns="http://www.w3.org/2000/svg" d="m408 368c0 22.089844-17.910156 40-40 40s-40-17.910156-40-40 17.910156-40 40-40 40 17.910156 40 40zm0 0" fill="#ffc477" data-original="#ffc477" style=""/><path xmlns="http://www.w3.org/2000/svg" d="m360 248v-27.648438c4.480469-1.414062 8.828125-3.222656 12.992188-5.398437l19.59375 19.582031c3.121093 3.125 8.1875 3.125 11.308593 0l22.640625-22.640625c3.125-3.121093 3.125-8.1875 0-11.308593l-19.582031-19.59375c2.175781-4.164063 3.984375-8.511719 5.398437-12.992188h27.648438c4.417969 0 8-3.582031 8-8v-32c0-4.417969-3.582031-8-8-8h-27.648438c-1.414062-4.480469-3.222656-8.828125-5.398437-12.992188l19.582031-19.59375c3.125-3.121093 3.125-8.1875 0-11.308593l-22.640625-22.640625c-1.078125-1.03125-2.429687-1.726563-3.894531-2.007813v-27.457031c0-13.253906-10.746094-24-24-24h-352c-13.253906 0-24 10.746094-24 24v352c0 13.253906 10.746094 24 24 24h115.457031c.28125 1.464844.976563 2.816406 2.007813 3.894531l22.640625 22.640625c3.121093 3.125 8.1875 3.125 11.308593 0l19.59375-19.582031c4.164063 2.175781 8.511719 3.984375 12.992188 5.398437v27.648438c0 4.417969 3.582031 8 8 8h32c4.417969 0 8-3.582031 8-8v-32c0-4.417969-3.582031-8-8-8s-8 3.582031-8 8v24h-16v-25.761719c0-3.722656-2.570312-6.953125-6.199219-7.789062-7.027343-1.632813-13.738281-4.421875-19.847656-8.257813-3.164063-1.996094-7.285156-1.53125-9.929687 1.113282l-18.261719 18.296874-11.363281-11.363281.578124-.574219 17.71875-17.664062c2.644532-2.644531 3.109376-6.765625 1.113282-9.929688-3.835938-6.109374-6.625-12.816406-8.257813-19.847656-.828125-3.636718-4.058593-6.21875-7.789062-6.222656h-25.761719v-16h25.761719c3.722656 0 6.953125-2.570312 7.789062-6.199219 1.632813-7.027343 4.421875-13.738281 8.257813-19.847656 1.996094-3.164063 1.53125-7.285156-1.113282-9.929687l-18.296874-18.261719 11.363281-11.363281 18.238281 18.296874c2.644531 2.644532 6.765625 3.109376 9.929688 1.113282 6.109374-3.835938 12.816406-6.625 19.847656-8.257813 3.636718-.828125 6.21875-4.058593 6.222656-7.789062v-25.761719h16v25.761719c0 3.722656 2.570312 6.953125 6.199219 7.789062 7.027343 1.632813 13.738281 4.421875 19.847656 8.257813 3.738281 2.359375 8.683594 1.242187 11.042969-2.496094s1.238281-8.679688-2.496094-11.039062c-5.804688-3.664063-12.050781-6.5625-18.59375-8.625v-27.648438c0-4.417969-3.582031-8-8-8h-32c-4.417969 0-8 3.582031-8 8v27.648438c-4.480469 1.414062-8.828125 3.222656-12.992188 5.398437l-19.59375-19.582031c-3.121093-3.125-8.1875-3.125-11.308593 0l-22.640625 22.640625c-3.125 3.121093-3.125 8.1875 0 11.308593l19.582031 19.59375c-2.175781 4.164063-3.984375 8.511719-5.398437 12.992188h-27.648438c-4.417969 0-8 3.582031-8 8v32c0 4.417969 3.582031 8 8 8h27.648438c1.414062 4.480469 3.222656 8.828125 5.398437 12.992188l-11.007813 11.007812h-126.039062c-4.417969 0-8-3.582031-8-8v-296h227.457031c-.664062 2.652344.097657 5.460938 2.007813 7.414062l19.582031 19.59375c-2.175781 4.164063-3.984375 8.511719-5.398437 12.992188h-27.648438c-4.417969 0-8 3.582031-8 8v32c0 4.417969 3.582031 8 8 8h27.648438c1.414062 4.480469 3.222656 8.828125 5.398437 12.992188l-19.582031 19.59375c-3.125 3.121093-3.125 8.1875 0 11.308593l22.640625 22.640625c3.121093 3.125 8.1875 3.125 11.308593 0l19.59375-19.582031c4.164063 2.175781 8.511719 3.984375 12.992188 5.398437v27.648438c0 4.417969 3.582031 8 8 8h32c4.417969 0 8-3.582031 8-8zm-344-224c0-4.417969 3.582031-8 8-8h352c4.417969 0 8 3.582031 8 8v38.039062l-11.007812 11.007813c-4.164063-2.175781-8.511719-3.984375-12.992188-5.398437v-27.648438c0-4.417969-3.582031-8-8-8h-32c-4.417969 0-8 3.582031-8 8v27.648438c-4.480469 1.414062-8.828125 3.222656-12.992188 5.398437l-19.59375-19.582031c-3.121093-3.125-8.1875-3.125-11.308593 0l-10.503907 10.535156h-241.601562zm334.199219 182.449219c-3.628907.835937-6.199219 4.066406-6.199219 7.789062v25.761719h-16v-25.761719c0-3.722656-2.570312-6.953125-6.199219-7.789062-7.027343-1.632813-13.738281-4.421875-19.847656-8.257813-3.164063-1.996094-7.285156-1.53125-9.929687 1.113282l-18.261719 18.296874-11.363281-11.363281 18.296874-18.238281c2.644532-2.644531 3.109376-6.765625 1.113282-9.929688-3.835938-6.109374-6.625-12.816406-8.257813-19.847656-.828125-3.636718-4.058593-6.21875-7.789062-6.222656h-25.761719v-16h25.761719c3.722656 0 6.953125-2.570312 7.789062-6.199219 1.632813-7.027343 4.421875-13.738281 8.257813-19.847656 1.996094-3.164063 1.53125-7.285156-1.113282-9.929687l-18.296874-18.261719 11.363281-11.363281 18.238281 18.296874c2.644531 2.644532 6.765625 3.109376 9.929688 1.113282 6.109374-3.835938 12.816406-6.625 19.847656-8.257813 3.636718-.828125 6.21875-4.058593 6.222656-7.789062v-25.761719h16v25.761719c0 3.722656 2.570312 6.953125 6.199219 7.789062 7.027343 1.632813 13.738281 4.421875 19.847656 8.257813 3.164063 1.996094 7.285156 1.53125 9.929687-1.113282l18.261719-18.296874 11.363281 11.363281-18.296874 18.238281c-2.644532 2.644531-3.109376 6.765625-1.113282 9.929688 3.835938 6.109374 6.625 12.816406 8.257813 19.847656.828125 3.636718 4.058593 6.21875 7.789062 6.222656h25.761719v16h-25.761719c-3.722656 0-6.953125 2.570312-7.789062 6.199219-1.632813 7.027343-4.421875 13.738281-8.257813 19.847656-1.996094 3.164063-1.53125 7.285156 1.113282 9.929687l18.296874 18.261719-11.363281 11.363281-18.238281-18.296874c-2.644531-2.644532-6.765625-3.109376-9.929688-1.113282-6.117187 3.839844-12.832031 6.628906-19.871093 8.257813zm0 0" fill="#000000" data-original="#000000" style="" class=""/><path xmlns="http://www.w3.org/2000/svg" d="m472 344h-27.648438c-1.414062-4.480469-3.222656-8.828125-5.398437-12.992188l19.582031-19.59375c3.125-3.121093 3.125-8.1875 0-11.308593l-22.640625-22.640625c-3.121093-3.125-8.1875-3.125-11.308593 0l-19.59375 19.582031c-4.164063-2.175781-8.511719-3.984375-12.992188-5.398437v-27.648438c0-4.417969-3.582031-8-8-8h-32c-4.417969 0-8 3.582031-8 8v27.648438c-4.480469 1.414062-8.828125 3.222656-12.992188 5.398437l-19.59375-19.582031c-3.121093-3.125-8.1875-3.125-11.308593 0l-22.640625 22.640625c-3.125 3.121093-3.125 8.1875 0 11.308593l19.582031 19.59375c-2.175781 4.164063-3.984375 8.511719-5.398437 12.992188h-27.648438c-4.417969 0-8 3.582031-8 8v32c0 4.417969 3.582031 8 8 8h27.648438c1.414062 4.480469 3.222656 8.828125 5.398437 12.992188l-19.582031 19.59375c-3.125 3.121093-3.125 8.1875 0 11.308593l22.640625 22.640625c3.121093 3.125 8.1875 3.125 11.308593 0l19.59375-19.582031c4.164063 2.175781 8.511719 3.984375 12.992188 5.398437v27.648438c0 4.417969 3.582031 8 8 8h32c4.417969 0 8-3.582031 8-8v-27.648438c4.480469-1.414062 8.828125-3.222656 12.992188-5.398437l19.59375 19.582031c3.121093 3.125 8.1875 3.125 11.308593 0l22.640625-22.640625c3.125-3.121093 3.125-8.1875 0-11.308593l-19.582031-19.59375c2.175781-4.164063 3.984375-8.511719 5.398437-12.992188h27.648438c4.417969 0 8-3.582031 8-8v-32c0-4.417969-3.582031-8-8-8zm-8 32h-25.761719c-3.722656 0-6.953125 2.570312-7.789062 6.199219-1.632813 7.027343-4.421875 13.738281-8.257813 19.847656-1.996094 3.164063-1.53125 7.285156 1.113282 9.929687l18.296874 18.261719-11.363281 11.363281-18.238281-18.296874c-2.644531-2.644532-6.765625-3.109376-9.929688-1.113282-6.109374 3.835938-12.816406 6.625-19.847656 8.257813-3.636718.828125-6.21875 4.058593-6.222656 7.789062v25.761719h-16v-25.761719c0-3.722656-2.570312-6.953125-6.199219-7.789062-7.027343-1.632813-13.738281-4.421875-19.847656-8.257813-3.164063-1.996094-7.285156-1.53125-9.929687 1.113282l-18.261719 18.296874-11.363281-11.363281 18.296874-18.238281c2.644532-2.644531 3.109376-6.765625 1.113282-9.929688-3.835938-6.109374-6.625-12.816406-8.257813-19.847656-.828125-3.636718-4.058593-6.21875-7.789062-6.222656h-25.761719v-16h25.761719c3.722656 0 6.953125-2.570312 7.789062-6.199219 1.632813-7.027343 4.421875-13.738281 8.257813-19.847656 1.996094-3.164063 1.53125-7.285156-1.113282-9.929687l-18.296874-18.261719 11.363281-11.363281 18.238281 18.296874c2.644531 2.644532 6.765625 3.109376 9.929688 1.113282 6.109374-3.835938 12.816406-6.625 19.847656-8.257813 3.636718-.828125 6.21875-4.058593 6.222656-7.789062v-25.761719h16v25.761719c0 3.722656 2.570312 6.953125 6.199219 7.789062 7.027343 1.632813 13.738281 4.421875 19.847656 8.257813 3.164063 1.996094 7.285156 1.53125 9.929687-1.113282l18.261719-18.296874 11.363281 11.363281-18.296874 18.238281c-2.644532 2.644531-3.109376 6.765625-1.113282 9.929688 3.835938 6.109374 6.625 12.816406 8.257813 19.847656.828125 3.636718 4.058593 6.21875 7.789062 6.222656h25.761719zm0 0" fill="#000000" data-original="#000000" style="" class=""/><path xmlns="http://www.w3.org/2000/svg" d="m48 32h-16c-4.417969 0-8 3.582031-8 8s3.582031 8 8 8h16c4.417969 0 8-3.582031 8-8s-3.582031-8-8-8zm0 0" fill="#000000" data-original="#000000" style="" class=""/><path xmlns="http://www.w3.org/2000/svg" d="m96 32h-24c-4.417969 0-8 3.582031-8 8s3.582031 8 8 8h24c4.417969 0 8-3.582031 8-8s-3.582031-8-8-8zm0 0" fill="#000000" data-original="#000000" style="" class=""/><path xmlns="http://www.w3.org/2000/svg" d="m176 32h-56c-4.417969 0-8 3.582031-8 8s3.582031 8 8 8h56c4.417969 0 8-3.582031 8-8s-3.582031-8-8-8zm0 0" fill="#000000" data-original="#000000" style="" class=""/><path xmlns="http://www.w3.org/2000/svg" d="m336 112c4.417969 0 8-3.582031 8-8s-3.582031-8-8-8c-26.507812 0-48 21.492188-48 48s21.492188 48 48 48c4.417969 0 8-3.582031 8-8s-3.582031-8-8-8c-17.671875 0-32-14.328125-32-32s14.328125-32 32-32zm0 0" fill="#000000" data-original="#000000" style="" class=""/><path xmlns="http://www.w3.org/2000/svg" d="m368 320c-26.507812 0-48 21.492188-48 48s21.492188 48 48 48 48-21.492188 48-48c-.027344-26.5-21.5-47.972656-48-48zm0 80c-17.671875 0-32-14.328125-32-32s14.328125-32 32-32 32 14.328125 32 32-14.328125 32-32 32zm0 0" fill="#000000" data-original="#000000" style="" class=""/></g></svg>
